<?xml version="1.0" standalone="no"?>
<!DOCTYPE svg PUBLIC "-//W3C//DTD SVG 20010904//EN"
 "http://www.w3.org/TR/2001/REC-SVG-20010904/DTD/svg10.dtd">
<svg version="1.0" xmlns="http://www.w3.org/2000/svg"
 width="150.000000pt" height="150.000000pt" viewBox="0 0 150.000000 150.000000"
 preserveAspectRatio="xMidYMid meet">

<g transform="translate(0.000000,150.000000) scale(0.100000,-0.100000)"
fill="#000000" stroke="none">
<path d="M243 1315 c-62 -31 -156 -130 -173 -180 -16 -49 -5 -100 27 -125 50
-39 59 -33 156 93 64 83 107 117 192 152 l58 23 -41 27 c-63 41 -150 45 -219
10z"/>
<path d="M838 1239 c-26 -4 -51 -10 -57 -13 -5 -4 9 -24 33 -46 23 -22 51 -55
61 -74 17 -30 27 -37 72 -46 29 -6 55 -16 58 -21 14 -22 25 -5 25 39 0 49 -26
118 -51 139 -24 19 -90 30 -141 22z"/>
<path d="M365 1075 c-3 -8 -7 -21 -9 -28 -6 -20 10 -41 27 -34 15 6 26 44 19
65 -5 17 -32 15 -37 -3z"/>
<path d="M503 994 c-4 -10 -2 -19 5 -22 7 -2 12 -12 12 -23 0 -28 -38 -25 -42
4 -5 34 -32 27 -36 -10 -3 -25 2 -35 22 -49 15 -9 34 -14 44 -12 10 3 27 -1
37 -8 29 -21 62 -17 84 12 16 21 19 30 10 41 -10 11 -15 10 -34 -7 -16 -15
-24 -17 -33 -8 -18 18 -15 27 13 38 44 17 26 40 -43 55 -25 5 -33 3 -39 -11z"/>
<path d="M719 973 c-12 -31 -6 -53 15 -53 17 0 31 42 22 65 -9 23 -25 18 -37
-12z"/>
<path d="M940 794 c-11 -29 -6 -44 16 -44 16 0 38 46 28 61 -11 18 -35 9 -44
-17z"/>
<path d="M1267 734 c-10 -10 -9 -62 1 -68 15 -9 33 11 35 39 2 28 -19 45 -36
29z"/>
<path d="M1012 688 c3 -35 19 -47 95 -69 36 -10 46 -10 68 5 31 20 34 56 5 56
-11 0 -20 -4 -20 -10 0 -19 -28 -10 -33 10 -5 21 -31 27 -42 10 -11 -18 -35
-11 -35 10 0 14 -7 20 -21 20 -17 0 -20 -5 -17 -32z"/>
</g>
</svg>
